<?xml version="1.0" encoding="UTF-8" standalone="no"?>
<!-- Created with Inkscape (http://www.inkscape.org/) -->

<svg
   width="512"
   height="512"
   viewBox="0 0 512 512"
   version="1.1"
   id="svg1"
   inkscape:version="1.3 (0e150ed6c4, 2023-07-21)"
   sodipodi:docname="icon.svg"
   inkscape:export-filename="icon.png"
   inkscape:export-xdpi="96"
   inkscape:export-ydpi="96"
   xmlns:inkscape="http://www.inkscape.org/namespaces/inkscape"
   xmlns:sodipodi="http://sodipodi.sourceforge.net/DTD/sodipodi-0.dtd"
   xmlns="http://www.w3.org/2000/svg"
   xmlns:svg="http://www.w3.org/2000/svg">
  <sodipodi:namedview
     id="namedview1"
     pagecolor="#ffffff"
     bordercolor="#000000"
     borderopacity="0.25"
     inkscape:showpageshadow="2"
     inkscape:pageopacity="0.0"
     inkscape:pagecheckerboard="0"
     inkscape:deskcolor="#d1d1d1"
     inkscape:document-units="px"
     showgrid="true"
     showguides="true"
     inkscape:zoom="0.76693509"
     inkscape:cx="204.05899"
     inkscape:cy="279.68469"
     inkscape:window-width="1366"
     inkscape:window-height="715"
     inkscape:window-x="-8"
     inkscape:window-y="760"
     inkscape:window-maximized="1"
     inkscape:current-layer="layer1"
     inkscape:export-bgcolor="#ffffffff">
    <inkscape:grid
       id="grid1"
       units="px"
       originx="0"
       originy="0"
       spacingx="8"
       spacingy="8"
       empcolor="#0099e5"
       empopacity="0.30196078"
       color="#0099e5"
       opacity="0.14901961"
       empspacing="5"
       dotted="false"
       gridanglex="30"
       gridanglez="30"
       visible="true" />
  </sodipodi:namedview>
  <defs
     id="defs1" />
  <g
     inkscape:label="Layer 1"
     inkscape:groupmode="layer"
     id="layer1">
    <path
       id="rect73"
       style="fill:#6b289a;stroke:#ffffff;stroke-width:0;stroke-linejoin:round"
       d="M -200,332 H -31.999998 V 468 H -200 Z m 15.99999,-16 H -48.000008 V 484 H -184.00001 Z M -200,332 a 15.999995,15.999999 0 0 1 15.99999,-16 v 16 z m 15.99999,152 a 15.999999,15.999995 0 0 1 -16,-16 h 16 z m 152.000002,-16 a 15.999995,15.999999 0 0 1 -16,16 v -16 z m -16,-152 a 15.999999,15.999995 0 0 1 16,16 h -16 z m -80.000002,28 a 12,12 0 0 1 -7.4078,11.08655 12,12 0 0 1 -13.07748,-2.60127 12,12 0 0 1 -2.60127,-13.07748 12,12 0 0 1 11.08655,-7.4078 v 12 z m 80.483252,23.63519 a 20.241623,32.364803 0 0 1 -10.12082,28.02874 20.241623,32.364803 0 0 1 -20.24162,0 20.241623,32.364803 0 0 1 -10.12081,-28.02874 h 20.24162 z" />
    <path
       id="rect73-2-3"
       style="fill:#673ab7;fill-opacity:1;stroke:#ffffff;stroke-width:0;stroke-linejoin:round"
       d="M 184,36.571429 H 328 V 139.42858 H 184 Z M 205.13607,16.000001 H 307.9932 V 160 H 205.13607 Z M 184,36.571429 A 21.136048,20.57142 0 0 1 205.13607,16.000001 V 36.571429 Z M 205.13607,160 A 21.136053,20.571413 0 0 1 184,139.42858 h 21.13607 z M 328,139.42858 A 20.00678,20.57142 0 0 1 307.9932,160 V 139.42858 Z M 307.9932,16.000001 A 20.006785,20.571415 0 0 1 328,36.571429 h -20.0068 z" />
    <path
       id="rect73-2-3-4"
       style="fill:#673ab7;fill-opacity:1;stroke:#ffffff;stroke-width:0;stroke-linejoin:round"
       d="M 352,204.57142 H 496 V 307.42858 H 352 Z M 373.13607,184 H 475.9932 V 328 H 373.13607 Z M 352,204.57142 A 21.136048,20.57142 0 0 1 373.13607,184 v 20.57142 z M 373.13607,328 A 21.136053,20.571413 0 0 1 352,307.42858 h 21.13607 z M 496,307.42858 A 20.00678,20.57142 0 0 1 475.9932,328 V 307.42858 Z M 475.9932,184 A 20.006785,20.571415 0 0 1 496,204.57142 h -20.0068 z" />
    <path
       id="rect73-2-3-3"
       style="fill:#673ab7;fill-opacity:1;stroke:#ffffff;stroke-width:0;stroke-linejoin:round"
       d="M 16.000001,204.57143 H 160 V 307.42858 H 16.000001 Z M 37.136072,184 H 139.9932 V 328 H 37.136072 Z m -21.13607,20.57143 A 21.136048,20.57142 0 0 1 37.136072,184 v 20.57143 z M 37.136072,328 a 21.136053,20.571413 0 0 1 -21.13607,-20.57142 h 21.13607 z M 160,307.42858 A 20.00678,20.57142 0 0 1 139.9932,328 V 307.42858 Z M 139.9932,184 A 20.006785,20.571415 0 0 1 160,204.57143 h -20.0068 z" />
    <path
       id="rect73-2-3-3-4"
       style="fill:#673ab7;fill-opacity:1;stroke:#ffffff;stroke-width:0;stroke-linejoin:round"
       d="M 352,372.57143 H 496 V 475.42858 H 352 Z M 373.13607,352 H 475.9932 V 496 H 373.13607 Z M 352,372.57143 A 21.136048,20.57142 0 0 1 373.13607,352 v 20.57143 z M 373.13607,496 A 21.136053,20.571413 0 0 1 352,475.42858 h 21.13607 z M 496,475.42858 A 20.00678,20.57142 0 0 1 475.9932,496 V 475.42858 Z M 475.9932,352 A 20.006785,20.571415 0 0 1 496,372.57143 h -20.0068 z" />
    <path
       id="rect73-2-3-3-4-9"
       style="fill:#673ab7;fill-opacity:1;stroke:#ffffff;stroke-width:0;stroke-linejoin:round"
       d="M 184,372.57143 H 328 V 475.42858 H 184 Z M 205.13607,352 H 307.9932 V 496 H 205.13607 Z M 184,372.57143 A 21.136048,20.57142 0 0 1 205.13607,352 v 20.57143 z M 205.13607,496 A 21.136053,20.571413 0 0 1 184,475.42858 h 21.13607 z M 328,475.42858 A 20.00678,20.57142 0 0 1 307.9932,496 V 475.42858 Z M 307.9932,352 A 20.006785,20.571415 0 0 1 328,372.57143 h -20.0068 z" />
    <path
       id="rect73-2-3-3-4-9-1"
       style="fill:#673ab7;fill-opacity:1;stroke:#ffffff;stroke-width:0;stroke-linejoin:round"
       d="m 268.0068,372.57143 h 144 v 102.85715 h -144 z M 289.14287,352 H 392 V 496 H 289.14287 Z M 268.0068,372.57143 A 21.136048,20.57142 0 0 1 289.14287,352 v 20.57143 z M 289.14287,496 A 21.136053,20.571413 0 0 1 268.0068,475.42858 h 21.13607 z M 412.0068,475.42858 A 20.00678,20.57142 0 0 1 392,496 V 475.42858 Z M 392,352 a 20.006785,20.571415 0 0 1 20.0068,20.57143 H 392 Z" />
    <path
       id="rect73-2-3-3-4-9-1-2"
       style="fill:#673ab7;fill-opacity:1;stroke:#ffffff;stroke-width:0;stroke-linejoin:round"
       d="M 16,276.57143 H 160 V 379.42858 H 16 Z M 37.13607,256 H 139.9932 V 400 H 37.13607 Z M 16,276.57143 A 21.136048,20.57142 0 0 1 37.13607,256 v 20.57143 z M 37.13607,400 A 21.136053,20.571413 0 0 1 16,379.42858 H 37.13607 Z M 160,379.42858 A 20.00678,20.57142 0 0 1 139.9932,400 V 379.42858 Z M 139.9932,256 A 20.006785,20.571415 0 0 1 160,276.57143 h -20.0068 z" />
    <path
       id="rect73-2-3-3-8"
       style="fill:#673ab7;fill-opacity:1;stroke:#ffffff;stroke-width:0;stroke-linejoin:round"
       d="M 16.000007,372.57143 H 160 V 475.42858 H 16.000007 Z M 37.136077,352 H 139.9932 V 496 H 37.136077 Z m -21.13607,20.57143 A 21.136048,20.57142 0 0 1 37.136077,352 v 20.57143 z M 37.136077,496 a 21.136053,20.571413 0 0 1 -21.13607,-20.57142 h 21.13607 z M 160,475.42858 A 20.00678,20.57142 0 0 1 139.9932,496 V 475.42858 Z M 139.9932,352 A 20.006785,20.571415 0 0 1 160,372.57143 h -20.0068 z" />
    <path
       id="rect73-0"
       style="fill:#6b289a;stroke:#ffffff;stroke-width:0;stroke-linejoin:round"
       d="M -200.00001,132 H -32.000004 V 268 H -200.00001 Z m 15.99999,-16 H -48.000014 V 284 H -184.00002 Z m -15.99999,16 a 15.999995,15.999999 0 0 1 15.99999,-16 v 16 z m 15.99999,152 a 15.999999,15.999995 0 0 1 -16,-16 h 16 z m 152.000006,-16 a 15.999995,15.999999 0 0 1 -16,16 v -16 z m -16,-152 a 15.999999,15.999995 0 0 1 16,16 h -16 z m -80.000006,28 a 12,12 0 0 1 -7.4078,11.08655 12,12 0 0 1 -13.07748,-2.60127 12,12 0 0 1 -2.60127,-13.07748 12,12 0 0 1 11.08655,-7.4078 v 12 z m 80.483256,23.63519 a 20.241623,32.364803 0 0 1 -10.12082,28.02874 20.241623,32.364803 0 0 1 -20.24162,0 20.241623,32.364803 0 0 1 -10.12081,-28.02874 h 20.24162 z" />
    <path
       id="rect75"
       style="fill:#ffffff;stroke:#ffffff;stroke-width:0;stroke-linejoin:round"
       d="m -192.00001,332 h 152 v 136 h -152 z m 8,-8 h 136 v 152 h -136 z m -8,8 a 8,8 0 0 1 8,-8 v 8 z m 8,144 a 8,8 0 0 1 -8,-8 h 8 z m 144,-8 a 8,8 0 0 1 -8,8 v -8 z m -8,-144 a 8,8 0 0 1 8,8 h -8 z" />
    <path
       style="fill:#ffffff;fill-opacity:0;stroke:#ffffff;stroke-width:11.3118;stroke-linecap:round;stroke-linejoin:round;stroke-dasharray:none;stroke-opacity:1"
       d="m 337.67176,396 h 120.65655 l -10.96877,58.32819 h -98.719 z"
       id="path81" />
    <path
       style="fill:#ffffff;fill-opacity:0;stroke:#ffffff;stroke-width:10.0609;stroke-linecap:round;stroke-linejoin:round;stroke-dasharray:none;stroke-opacity:1"
       d="M 225.91558,396.74602 296,448 260.9453,473.88193 V 370.89114 L 296,396.74602 225.91558,448"
       id="path78" />
    <ellipse
       style="fill:#ffffff;fill-opacity:1;stroke:#ffffff;stroke-width:0;stroke-linecap:round;stroke-linejoin:round;stroke-dasharray:none;stroke-opacity:1"
       id="path80"
       cx="365.09372"
       cy="416.41483"
       rx="5.4843783"
       ry="5.832819" />
    <ellipse
       style="fill:#ffffff;fill-opacity:1;stroke:#ffffff;stroke-width:0;stroke-linecap:round;stroke-linejoin:round;stroke-dasharray:none;stroke-opacity:1"
       id="path80-6"
       cx="376.0625"
       cy="433.9133"
       rx="5.4843783"
       ry="5.832819" />
    <ellipse
       style="fill:#ffffff;fill-opacity:1;stroke:#ffffff;stroke-width:0;stroke-linecap:round;stroke-linejoin:round;stroke-dasharray:none;stroke-opacity:1"
       id="path80-6-2"
       cx="387.03128"
       cy="416.41483"
       rx="5.4843783"
       ry="5.832819" />
    <ellipse
       style="fill:#ffffff;fill-opacity:1;stroke:#ffffff;stroke-width:0;stroke-linecap:round;stroke-linejoin:round;stroke-dasharray:none;stroke-opacity:1"
       id="path80-6-2-8"
       cx="408.96884"
       cy="416.41483"
       rx="5.4843783"
       ry="5.832819" />
    <ellipse
       style="fill:#ffffff;fill-opacity:1;stroke:#ffffff;stroke-width:0;stroke-linecap:round;stroke-linejoin:round;stroke-dasharray:none;stroke-opacity:1"
       id="path80-6-2-8-6"
       cx="430.90637"
       cy="416.41483"
       rx="5.4843783"
       ry="5.832819" />
    <ellipse
       style="fill:#ffffff;fill-opacity:1;stroke:#ffffff;stroke-width:0;stroke-linecap:round;stroke-linejoin:round;stroke-dasharray:none;stroke-opacity:1"
       id="path80-6-2-8-6-1"
       cx="419.95276"
       cy="434.12296"
       rx="5.4843783"
       ry="5.832819" />
    <ellipse
       style="fill:#ffffff;fill-opacity:1;stroke:#ffffff;stroke-width:0;stroke-linecap:round;stroke-linejoin:round;stroke-dasharray:none;stroke-opacity:1"
       id="path80-6-0"
       cx="398.0076"
       cy="434.12296"
       rx="5.4843783"
       ry="5.832819" />
    <text
       xml:space="preserve"
       style="font-style:normal;font-variant:normal;font-weight:normal;font-stretch:normal;font-family:Consolas, '111Normal';-inkscape-font-specification:'Consolas, 111Normal';fill:#6a289a;fill-opacity:0;stroke:#6a289a;stroke-width:0;stroke-linecap:butt;stroke-linejoin:miter;stroke-dasharray:none;stroke-opacity:1"
       x="120"
       y="304"
       id="text86"><tspan
         sodipodi:role="line"
         id="tspan86"
         x="120"
         y="304" /></text>
    <path
       id="rect73-2-3-8-6-3-2-1-2-9-4-0"
       style="fill:#c8b5e8;fill-opacity:1;stroke:#ffffff;stroke-width:0;stroke-linejoin:round"
       d="M 16,36.571424 H 160 V 139.42858 H 16 Z M 37.136062,16 H 139.99319 V 160 H 37.136062 Z M 16,36.571424 A 21.136047,20.57142 0 0 1 37.136062,16 V 36.571424 Z M 37.136062,160 A 21.136052,20.571413 0 0 1 16,139.42858 H 37.136062 Z M 159.99999,139.42858 A 20.006778,20.57142 0 0 1 139.99319,160 V 139.42858 Z M 139.99319,16 a 20.006784,20.571416 0 0 1 20.0068,20.571424 h -20.0068 z" />
    <path
       id="rect73-2-3-8-6-3-2-1-2-9-4-0-5"
       style="fill:#c8b5e8;fill-opacity:1;stroke:#ffffff;stroke-width:0;stroke-linejoin:round"
       d="M 352,36.571425 H 496 V 139.42858 H 352 Z M 373.13606,16.000001 H 475.99318 V 160 H 373.13606 Z M 352,36.571425 A 21.136047,20.57142 0 0 1 373.13606,16.000001 V 36.571425 Z M 373.13606,160 A 21.136052,20.571413 0 0 1 352,139.42858 h 21.13606 z M 495.99999,139.42858 A 20.006778,20.57142 0 0 1 475.99318,160 V 139.42858 Z M 475.99318,16.000001 a 20.006784,20.571416 0 0 1 20.00681,20.571424 h -20.00681 z" />
    <path
       id="rect73-2-3-8-6-3-2-1-2-9-4-0-5-3"
       style="fill:#c8b5e8;fill-opacity:1;stroke:#ffffff;stroke-width:0;stroke-linejoin:round"
       d="M 184,204.57142 H 328 V 307.42858 H 184 Z M 205.13606,184 H 307.99318 V 328 H 205.13606 Z M 184,204.57142 A 21.136047,20.57142 0 0 1 205.13606,184 v 20.57142 z M 205.13606,328 A 21.136052,20.571413 0 0 1 184,307.42858 h 21.13606 z M 327.99999,307.42858 A 20.006778,20.57142 0 0 1 307.99318,328 V 307.42858 Z M 307.99318,184 a 20.006784,20.571416 0 0 1 20.00681,20.57142 h -20.00681 z" />
  </g>
</svg>
