<?xml version="1.0" encoding="UTF-8" standalone="no"?>
<!-- Created with Inkscape (http://www.inkscape.org/) -->

<svg
   width="512"
   height="512"
   viewBox="0 0 512 512"
   version="1.1"
   id="svg1"
   inkscape:version="1.3 (0e150ed6c4, 2023-07-21)"
   sodipodi:docname="icon.svg"
   inkscape:export-filename="icon.png"
   inkscape:export-xdpi="96"
   inkscape:export-ydpi="96"
   xmlns:inkscape="http://www.inkscape.org/namespaces/inkscape"
   xmlns:sodipodi="http://sodipodi.sourceforge.net/DTD/sodipodi-0.dtd"
   xmlns="http://www.w3.org/2000/svg"
   xmlns:svg="http://www.w3.org/2000/svg">
  <sodipodi:namedview
     id="namedview1"
     pagecolor="#ffffff"
     bordercolor="#000000"
     borderopacity="0.25"
     inkscape:showpageshadow="2"
     inkscape:pageopacity="0.0"
     inkscape:pagecheckerboard="0"
     inkscape:deskcolor="#d1d1d1"
     inkscape:document-units="px"
     showgrid="true"
     showguides="true"
     inkscape:zoom="1.0000001"
     inkscape:cx="208.99999"
     inkscape:cy="312.49998"
     inkscape:window-width="1366"
     inkscape:window-height="715"
     inkscape:window-x="-8"
     inkscape:window-y="-8"
     inkscape:window-maximized="1"
     inkscape:current-layer="layer1"
     inkscape:export-bgcolor="#ffffff00">
    <inkscape:grid
       id="grid1"
       units="px"
       originx="0"
       originy="0"
       spacingx="8"
       spacingy="8"
       empcolor="#0099e5"
       empopacity="0.30196078"
       color="#0099e5"
       opacity="0.14901961"
       empspacing="5"
       dotted="false"
       gridanglex="30"
       gridanglez="30"
       visible="true" />
  </sodipodi:namedview>
  <defs
     id="defs1" />
  <g
     inkscape:label="Base"
     inkscape:groupmode="layer"
     id="layer1">
    <path
       id="rect73-2-3-8-6-3-2-1-2-9-4-0-5-8-4"
       style="fill:#c9b5e9;fill-opacity:1;stroke:#ffffff;stroke-width:0;stroke-linejoin:round"
       d="M -0.10657475,21.714277 H 152 V 130.28569 H -0.10657475 Z M 22.219358,4.75e-7 H 130.86692 V 152 H 22.219358 Z M -0.10657475,21.714277 A 22.325923,21.714274 0 0 1 22.219358,1.5675e-5 V 21.714309 Z M 22.219358,152 A 22.325929,21.714269 0 0 1 -0.10657475,130.28569 H 22.219358 Z M 152,130.28569 A 21.133081,21.714274 0 0 1 130.86692,152 V 130.28569 Z M 130.86692,4.75e-7 A 21.133085,21.714271 0 0 1 152,21.714277 h -21.13308 z" />
    <path
       id="rect73-2-3-8-6-3-2-1-2-9-4-0-5-8-4-7"
       style="fill:#c9b5e9;fill-opacity:1;stroke:#ffffff;stroke-width:0;stroke-linejoin:round"
       d="M 180,201.71428 H 332.10656 V 310.28569 H 180 Z M 202.32593,180 H 310.97348 V 332.00001 H 202.32593 Z M 180,201.71428 a 22.325923,21.714274 0 0 1 22.32593,-21.71425 v 21.71429 z m 22.32593,130.28573 A 22.325929,21.714269 0 0 1 180,310.28569 h 22.32593 z m 129.78063,-21.71432 a 21.133081,21.714274 0 0 1 -21.13308,21.71432 V 310.28569 Z M 310.97348,180 a 21.133085,21.714271 0 0 1 21.13308,21.71428 h -21.13308 z" />
    <path
       id="rect73-2-3-8-6-3-2-1-2-9-4-0-5-8-4-0"
       style="fill:#c9b5e9;fill-opacity:1;stroke:#ffffff;stroke-width:0;stroke-linejoin:round"
       d="M 360,21.714278 H 512 V 130.2857 H 360 Z M 382.31029,4.7591709e-7 h 108.5714 V 152 H 382.31029 Z M 360,21.714278 A 22.310272,21.714273 0 0 1 382.31029,1.5651874e-5 V 21.71431 Z M 382.31029,152 A 22.310278,21.71427 0 0 1 360,130.2857 h 22.31029 z M 512,130.2857 A 21.118265,21.714273 0 0 1 490.88169,152 V 130.2857 Z M 490.88169,4.7591709e-7 A 21.11827,21.714272 0 0 1 511.99999,21.714278 h -21.11831 z" />
    <path
       id="rect73-2-3-4-4"
       style="fill:#673ab7;fill-opacity:1;stroke:#ffffff;stroke-width:0;stroke-linejoin:round"
       d="M 180,21.714263 H 332 V 130.28567 H 180 Z M 202.3103,5.7529604e-7 H 310.88176 V 152 H 202.3103 Z M 180,21.714263 A 22.310283,21.714271 0 0 1 202.3103,5.7529604e-7 V 21.714263 Z M 202.3103,152 A 22.31029,21.714267 0 0 1 180,130.28567 h 22.3103 z M 332,130.28567 A 21.118273,21.714271 0 0 1 310.88176,152 V 130.28567 Z M 310.88176,5.7529604e-7 A 21.11828,21.71427 0 0 1 332,21.714263 h -21.11824 z" />
    <path
       id="rect73-2-3-4-4-5"
       style="fill:#673ab7;fill-opacity:1;stroke:#ffffff;stroke-width:0;stroke-linejoin:round"
       d="M 5.0009596e-7,201.71426 H 152 V 310.28567 H 5.0009596e-7 Z M 22.310301,180 H 130.88176 V 332 H 22.310301 Z M 5.0009596e-7,201.71426 A 22.310283,21.714271 0 0 1 22.310301,180 v 21.71426 z M 22.310301,332 A 22.31029,21.714267 0 0 1 5.0009596e-7,310.28567 H 22.310301 Z M 152,310.28567 A 21.118273,21.714271 0 0 1 130.88176,332 V 310.28567 Z M 130.88176,180 A 21.11828,21.71427 0 0 1 152,201.71426 h -21.11824 z" />
    <path
       id="rect73-2-3-4-4-5-2"
       style="fill:#673ab7;fill-opacity:1;stroke:#ffffff;stroke-width:0;stroke-linejoin:round"
       d="M 5.0009596e-7,381.71426 H 152 V 490.28567 H 5.0009596e-7 Z M 22.310301,360 H 130.88176 V 512 H 22.310301 Z M 5.0009596e-7,381.71426 A 22.310283,21.714271 0 0 1 22.310301,360 v 21.71426 z M 22.310301,512 A 22.31029,21.714267 0 0 1 5.0009596e-7,490.28567 H 22.310301 Z M 152,490.28567 A 21.118273,21.714271 0 0 1 130.88176,512 V 490.28567 Z M 130.88176,360 A 21.11828,21.71427 0 0 1 152,381.71426 h -21.11824 z" />
    <path
       id="rect73-2-3-4-4-5-2-1"
       style="fill:#673ab7;fill-opacity:1;stroke:#ffffff;stroke-width:0;stroke-linejoin:round"
       d="M 7.5004797e-7,286.81617 H 152 V 395.38758 H 7.5004797e-7 Z M 22.310301,265.10191 H 130.88176 v 152 H 22.310301 Z M 7.5004797e-7,286.81617 A 22.310283,21.714271 0 0 1 22.310301,265.10191 v 21.71426 z M 22.310301,417.10191 A 22.31029,21.714267 0 0 1 7.5004797e-7,395.38758 H 22.310301 Z M 152,395.38758 a 21.118273,21.714271 0 0 1 -21.11824,21.71433 V 395.38758 Z M 130.88176,265.10191 A 21.11828,21.71427 0 0 1 152,286.81617 h -21.11824 z" />
    <ellipse
       style="fill:#673ab6;fill-opacity:1;stroke:#a8ab2a;stroke-width:0;stroke-linecap:round;stroke-linejoin:round;stroke-dasharray:none;stroke-opacity:1"
       id="path4-0"
       cx="484"
       cy="400"
       rx="27.999996"
       ry="28" />
    <ellipse
       style="fill:#673ab6;fill-opacity:1;stroke:#a8ab2a;stroke-width:0;stroke-linecap:round;stroke-linejoin:round;stroke-dasharray:none;stroke-opacity:1"
       id="path4-0-7"
       cx="388"
       cy="472"
       rx="27.999996"
       ry="28" />
    <path
       style="fill:#673ab6;stroke:#6639b6;stroke-width:32;stroke-linecap:round;stroke-linejoin:round;stroke-dasharray:none"
       d="m 376,400 h 56"
       id="path1" />
    <path
       style="fill:#673ab6;stroke:#6639b6;stroke-width:32;stroke-linecap:round;stroke-linejoin:round;stroke-dasharray:none"
       d="M 496,472 H 440"
       id="path2" />
  </g>
  <g
     inkscape:groupmode="layer"
     id="layer2"
     inkscape:label="Specific" />
</svg>
